ffmpeg started on 2025-07-19 at 13:57:53
Report written to "D:\Convert\FFMetrics\reports\psnr_report-6.txt"
Log level: 32
Command line:
ffmpeg -hide_banner -nostdin -i "G:\\\xc0\xed\xe8\xec\xe5\\\xce\xed\xe3\xee\xe8\xed\xe3\xe8\\!_07_\xcb\xe5\xf2\xee_2017\\\xd1\xe5\xec\xfc - \xe2\xe5\xf0\xed\xee, \xf2\xf0\xe8 - \xed\xe5\xe2\xe5\xf0\xed\xee\\[AniDub]_Nana_Maru_San_Batsu_[01]_[720p_x264_Aac]_[MVO]_HEVC.mkv" -i "G:\\\xc0\xed\xe8\xec\xe5\\\xce\xed\xe3\xee\xe8\xed\xe3\xe8\\!_07_\xcb\xe5\xf2\xee_2017\\\xd1\xe5\xec\xfc - \xe2\xe5\xf0\xed\xee, \xf2\xf0\xe8 - \xed\xe5\xe2\xe5\xf0\xed\xee\\[AniDub]_Nana_Maru_San_Batsu_[01]_[720p_x264_Aac]_[MVO].mp4" -lavfi "[0:v]settb=AVTB,setpts=PTS-STARTPTS,format=pix_fmts=yuv420p10,fps=24000/1001,scale=1280:720:flags=bicubic[main];[1:v]settb=AVTB,setpts=PTS-STARTPTS,format=pix_fmts=yuv420p,fps=24000/1001,scale=1280:720:flags=bicubic[ref];[main][ref]psnr=eof_action=endall:stats_file='D\\:/Convert/FFMetrics/logs/psnr_logfile-6.txt'" -f null -
Input #0, matroska,webm, from 'G:\Аниме\Онгоинги\!_07_Лето_2017\Семь - верно, три - неверно\[AniDub]_Nana_Maru_San_Batsu_[01]_[720p_x264_Aac]_[MVO]_HEVC.mkv':
  Metadata:
    COMPATIBLE_BRANDS: isom
    MAJOR_BRAND     : isom
    MINOR_VERSION   : 1
    ENCODER         : Lavf61.7.100
  Duration: 00:23:02.55, start: -0.021000, bitrate: 821 kb/s
  Stream #0:0: Video: hevc (Main 10), yuv420p10le(tv, bt709, progressive), 1280x720 [SAR 1:1 DAR 16:9], 23.98 fps, 23.98 tbr, 1k tbn (default)
      Metadata:
        HANDLER_NAME    : 264
        VENDOR_ID       : [0][0][0][0]
        ENCODER         : Lavc61.19.100 libx265
        BPS             : 625461
        DURATION        : 00:22:59.669708333
        NUMBER_OF_FRAMES: 33079
        NUMBER_OF_BYTES : 107866198
        _STATISTICS_WRITING_APP: mkvpropedit v66.0.0 ('Josie') 64-bit
        _STATISTICS_WRITING_DATE_UTC: 2025-07-19 09:07:46
        _STATISTICS_TAGS: BPS DURATION NUMBER_OF_FRAMES NUMBER_OF_BYTES
  Stream #0:1(eng): Audio: aac (LC), 48000 Hz, stereo, fltp (default)
      Metadata:
        HANDLER_NAME    : GPAC ISO Audio Handler
        VENDOR_ID       : [0][0][0][0]
        ENCODER         : Lavc61.19.100 aac
        BPS             : 192986
        DURATION        : 00:23:02.528000000
        NUMBER_OF_FRAMES: 64807
        NUMBER_OF_BYTES : 33351218
        _STATISTICS_WRITING_APP: mkvpropedit v66.0.0 ('Josie') 64-bit
        _STATISTICS_WRITING_DATE_UTC: 2025-07-19 09:07:46
        _STATISTICS_TAGS: BPS DURATION NUMBER_OF_FRAMES NUMBER_OF_BYTES
Input #1, mov,mp4,m4a,3gp,3g2,mj2, from 'G:\Аниме\Онгоинги\!_07_Лето_2017\Семь - верно, три - неверно\[AniDub]_Nana_Maru_San_Batsu_[01]_[720p_x264_Aac]_[MVO].mp4':
  Metadata:
    major_brand     : isom
    minor_version   : 1
    compatible_brands: isom
    creation_time   : 2017-12-05T19:51:50.000000Z
    encoder         : Yamb 2.1.0.0 [http://yamb.unite-video.com]
  Duration: 00:23:02.53, start: 0.000000, bitrate: 2253 kb/s
  Stream #1:0[0x1](und): Video: h264 (High) (avc1 / 0x31637661), yuv420p(tv, bt709, progressive), 1280x720 [SAR 1:1 DAR 16:9], 2062 kb/s, 23.98 fps, 23.98 tbr, 24k tbn (default)
      Metadata:
        creation_time   : 2017-07-05T18:01:20.000000Z
        handler_name    : 264
        vendor_id       : [0][0][0][0]
  Stream #1:1[0x2](eng): Audio: aac (LC) (mp4a / 0x6134706D), 48000 Hz, stereo, fltp, 192 kb/s (default)
      Metadata:
        creation_time   : 2017-12-05T19:51:52.000000Z
        handler_name    : GPAC ISO Audio Handler
        vendor_id       : [0][0][0][0]
Stream mapping:
  Stream #0:0 (hevc) -> settb:default
  Stream #1:0 (h264) -> settb:default
  psnr:default -> Stream #0:0 (wrapped_avframe)
  Stream #0:1 -> #0:1 (aac (native) -> pcm_s16le (native))
Output #0, null, to 'pipe:':
  Metadata:
    COMPATIBLE_BRANDS: isom
    MAJOR_BRAND     : isom
    MINOR_VERSION   : 1
    encoder         : Lavf61.7.100
  Stream #0:0: Video: wrapped_avframe, yuv420p10le(tv, bt709, progressive), 1280x720 [SAR 1:1 DAR 16:9], q=2-31, 200 kb/s, 23.98 fps, 23.98 tbn
      Metadata:
        encoder         : Lavc61.19.100 wrapped_avframe
  Stream #0:1(eng): Audio: pcm_s16le, 48000 Hz, stereo, s16, 1536 kb/s (default)
      Metadata:
        HANDLER_NAME    : GPAC ISO Audio Handler
        VENDOR_ID       : [0][0][0][0]
        _STATISTICS_TAGS: BPS DURATION NUMBER_OF_FRAMES NUMBER_OF_BYTES
        BPS             : 192986
        DURATION        : 00:23:02.528000000
        NUMBER_OF_FRAMES: 64807
        NUMBER_OF_BYTES : 33351218
        _STATISTICS_WRITING_APP: mkvpropedit v66.0.0 ('Josie') 64-bit
        _STATISTICS_WRITING_DATE_UTC: 2025-07-19 09:07:46
        encoder         : Lavc61.19.100 pcm_s16le
frame=  364 fps=0.0 q=-0.0 size=N/A time=00:00:15.18 bitrate=N/A speed=29.4x    frame=  875 fps=852 q=-0.0 size=N/A time=00:00:36.49 bitrate=N/A speed=35.5x    frame= 1199 fps=772 q=-0.0 size=N/A time=00:00:50.00 bitrate=N/A speed=32.2x    frame= 1582 fps=770 q=-0.0 size=N/A time=00:01:05.98 bitrate=N/A speed=32.1x    frame= 1961 fps=761 q=-0.0 size=N/A time=00:01:21.79 bitrate=N/A speed=31.7x    frame= 2344 fps=760 q=-0.0 size=N/A time=00:01:37.76 bitrate=N/A speed=31.7x    frame= 2668 fps=739 q=-0.0 size=N/A time=00:01:51.27 bitrate=N/A speed=30.8x    frame= 3089 fps=751 q=-0.0 size=N/A time=00:02:08.83 bitrate=N/A speed=31.3x    frame= 3390 fps=731 q=-0.0 size=N/A time=00:02:21.39 bitrate=N/A speed=30.5x    frame= 3792 fps=737 q=-0.0 size=N/A time=00:02:38.15 bitrate=N/A speed=30.7x    frame= 4132 fps=729 q=-0.0 size=N/A time=00:02:52.33 bitrate=N/A speed=30.4x    frame= 4704 fps=760 q=-0.0 size=N/A time=00:03:16.19 bitrate=N/A speed=31.7x    frame= 5176 fps=772 q=-0.0 size=N/A time=00:03:35.88 bitrate=N/A speed=32.2x    frame= 5613 fps=777 q=-0.0 size=N/A time=00:03:54.10 bitrate=N/A speed=32.4x    frame= 6072 fps=786 q=-0.0 size=N/A time=00:04:13.25 bitrate=N/A speed=32.8x    frame= 6626 fps=803 q=-0.0 size=N/A time=00:04:36.35 bitrate=N/A speed=33.5x    frame= 7081 fps=808 q=-0.0 size=N/A time=00:04:55.33 bitrate=N/A speed=33.7x    frame= 7605 fps=820 q=-0.0 size=N/A time=00:05:17.19 bitrate=N/A speed=34.2x    frame= 8137 fps=830 q=-0.0 size=N/A time=00:05:39.38 bitrate=N/A speed=34.6x    frame= 8532 fps=828 q=-0.0 size=N/A time=00:05:55.85 bitrate=N/A speed=34.5x    frame= 9010 fps=832 q=-0.0 size=N/A time=00:06:15.79 bitrate=N/A speed=34.7x    frame= 9558 fps=843 q=-0.0 size=N/A time=00:06:38.64 bitrate=N/A speed=35.2x    frame= 9964 fps=841 q=-0.0 size=N/A time=00:06:55.58 bitrate=N/A speed=35.1x    frame=10409 fps=841 q=-0.0 size=N/A time=00:07:14.14 bitrate=N/A speed=35.1x    frame=10798 fps=837 q=-0.0 size=N/A time=00:07:30.36 bitrate=N/A speed=34.9x    frame=11268 fps=841 q=-0.0 size=N/A time=00:07:49.96 bitrate=N/A speed=35.1x    frame=11636 fps=836 q=-0.0 size=N/A time=00:08:05.31 bitrate=N/A speed=34.9x    frame=12098 fps=838 q=-0.0 size=N/A time=00:08:24.58 bitrate=N/A speed=  35x    frame=12528 fps=837 q=-0.0 size=N/A time=00:08:42.52 bitrate=N/A speed=34.9x    frame=12954 fps=837 q=-0.0 size=N/A time=00:09:00.28 bitrate=N/A speed=34.9x    frame=13413 fps=838 q=-0.0 size=N/A time=00:09:19.43 bitrate=N/A speed=  35x    frame=13831 fps=838 q=-0.0 size=N/A time=00:09:36.86 bitrate=N/A speed=34.9x    frame=14340 fps=842 q=-0.0 size=N/A time=00:09:58.09 bitrate=N/A speed=35.1x    frame=14816 fps=845 q=-0.0 size=N/A time=00:10:17.95 bitrate=N/A speed=35.2x    frame=15328 fps=848 q=-0.0 size=N/A time=00:10:39.30 bitrate=N/A speed=35.4x    frame=15804 fps=851 q=-0.0 size=N/A time=00:10:59.15 bitrate=N/A speed=35.5x    frame=16291 fps=853 q=-0.0 size=N/A time=00:11:19.47 bitrate=N/A speed=35.6x    frame=16847 fps=858 q=-0.0 size=N/A time=00:11:42.66 bitrate=N/A speed=35.8x    frame=17346 fps=861 q=-0.0 size=N/A time=00:12:03.47 bitrate=N/A speed=35.9x    frame=17936 fps=868 q=-0.0 size=N/A time=00:12:28.08 bitrate=N/A speed=36.2x    frame=18419 fps=870 q=-0.0 size=N/A time=00:12:48.22 bitrate=N/A speed=36.3x    frame=18915 fps=873 q=-0.0 size=N/A time=00:13:08.91 bitrate=N/A speed=36.4x    frame=19490 fps=878 q=-0.0 size=N/A time=00:13:32.89 bitrate=N/A speed=36.6x    frame=20027 fps=882 q=-0.0 size=N/A time=00:13:55.29 bitrate=N/A speed=36.8x    frame=20453 fps=880 q=-0.0 size=N/A time=00:14:13.06 bitrate=N/A speed=36.7x    frame=20894 fps=880 q=-0.0 size=N/A time=00:14:31.45 bitrate=N/A speed=36.7x    frame=21411 fps=882 q=-0.0 size=N/A time=00:14:53.01 bitrate=N/A speed=36.8x    frame=21949 fps=886 q=-0.0 size=N/A time=00:15:15.45 bitrate=N/A speed=  37x    frame=22502 fps=889 q=-0.0 size=N/A time=00:15:38.52 bitrate=N/A speed=37.1x    frame=22960 fps=890 q=-0.0 size=N/A time=00:15:57.62 bitrate=N/A speed=37.1x    frame=23492 fps=892 q=-0.0 size=N/A time=00:16:19.81 bitrate=N/A speed=37.2x    frame=23967 fps=893 q=-0.0 size=N/A time=00:16:39.62 bitrate=N/A speed=37.2x    frame=24448 fps=893 q=-0.0 size=N/A time=00:16:59.68 bitrate=N/A speed=37.3x    frame=24913 fps=894 q=-0.0 size=N/A time=00:17:19.07 bitrate=N/A speed=37.3x    frame=25439 fps=896 q=-0.0 size=N/A time=00:17:41.01 bitrate=N/A speed=37.4x    frame=25963 fps=898 q=-0.0 size=N/A time=00:18:02.87 bitrate=N/A speed=37.4x    frame=26509 fps=901 q=-0.0 size=N/A time=00:18:25.64 bitrate=N/A speed=37.6x    frame=27083 fps=904 q=-0.0 size=N/A time=00:18:49.58 bitrate=N/A speed=37.7x    frame=27626 fps=907 q=-0.0 size=N/A time=00:19:12.23 bitrate=N/A speed=37.8x    frame=28128 fps=908 q=-0.0 size=N/A time=00:19:33.17 bitrate=N/A speed=37.9x    frame=28769 fps=913 q=-0.0 size=N/A time=00:19:59.90 bitrate=N/A speed=38.1x    frame=29283 fps=915 q=-0.0 size=N/A time=00:20:21.34 bitrate=N/A speed=38.1x    frame=29761 fps=915 q=-0.0 size=N/A time=00:20:41.28 bitrate=N/A speed=38.2x    frame=30291 fps=916 q=-0.0 size=N/A time=00:21:03.38 bitrate=N/A speed=38.2x    frame=30657 fps=914 q=-0.0 size=N/A time=00:21:18.65 bitrate=N/A speed=38.1x    frame=31032 fps=911 q=-0.0 size=N/A time=00:21:34.29 bitrate=N/A speed=  38x    frame=31329 fps=906 q=-0.0 size=N/A time=00:21:46.68 bitrate=N/A speed=37.8x    frame=31644 fps=901 q=-0.0 size=N/A time=00:21:59.81 bitrate=N/A speed=37.6x    frame=31920 fps=896 q=-0.0 size=N/A time=00:22:11.33 bitrate=N/A speed=37.4x    frame=32245 fps=892 q=-0.0 size=N/A time=00:22:24.88 bitrate=N/A speed=37.2x    frame=32771 fps=894 q=-0.0 size=N/A time=00:22:46.82 bitrate=N/A speed=37.3x    [Parsed_psnr_10 @ 0000018614ef6380] PSNR y:46.163753 u:49.306901 v:49.235806 average:46.974823 min:39.489208 max:61.703580
[out#0/null @ 00000186141f4ec0] video:14214KiB audio:259228KiB subtitle:0KiB other streams:0KiB global headers:0KiB muxing overhead: unknown
frame=33079 fps=896 q=-0.0 Lsize=N/A time=00:22:59.66 bitrate=N/A speed=37.4x    
